<svg width="24" height="24" viewBox="0 0 24 24" fill="none" xmlns="http://www.w3.org/2000/svg">
<path d="M20.66 10.2C20.756 10.2 20.839 10.267 20.855 10.361C20.949 10.887 21 11.453 21 12C21.003 14.2149 20.1862 16.3525 18.707 18.001C18.6727 18.0391 18.6248 18.0622 18.5737 18.0656C18.5225 18.069 18.472 18.0522 18.433 18.019L15.988 15.949C15.9669 15.9309 15.9498 15.9087 15.9375 15.8838C15.9252 15.8588 15.9181 15.8317 15.9166 15.8039C15.9152 15.7762 15.9193 15.7484 15.9288 15.7223C15.9383 15.6962 15.953 15.6723 15.972 15.652C16.4644 15.1161 16.8433 14.4861 17.086 13.8H12.2C12.147 13.8 12.0961 13.7789 12.0586 13.7414C12.0211 13.7039 12 13.653 12 13.6V10.4C12 10.29 12.09 10.2 12.2 10.2H20.66ZM14.473 16.8C14.5088 16.7813 14.5494 16.7735 14.5896 16.7778C14.6299 16.7821 14.6679 16.7982 14.699 16.824L17.267 18.997C17.2899 19.0161 17.3082 19.0401 17.3204 19.0673C17.3326 19.0945 17.3384 19.1241 17.3375 19.1539C17.3365 19.1837 17.3288 19.2129 17.3148 19.2393C17.3009 19.2656 17.2811 19.2884 17.257 19.306C15.7268 20.4102 13.887 21.0031 12 21C10.5 21.0008 9.02365 20.6263 7.70534 19.9107C6.38702 19.1952 5.26864 18.1612 4.45201 16.903C4.42526 16.8614 4.41514 16.8112 4.42366 16.7625C4.43218 16.7138 4.45872 16.6701 4.49801 16.64L7.04301 14.678C7.06641 14.6605 7.09324 14.6482 7.12175 14.6418C7.15026 14.6354 7.1798 14.6352 7.20842 14.641C7.23704 14.6469 7.26409 14.6587 7.28781 14.6758C7.31152 14.6928 7.33136 14.7147 7.34601 14.74C8.04567 15.9291 9.1741 16.8052 10.4995 17.1883C11.825 17.5714 13.2468 17.4325 14.473 16.8ZM6.68001 12.926C6.6864 12.9626 6.68271 13.0003 6.66932 13.035C6.65593 13.0697 6.63336 13.1001 6.60401 13.123L3.86901 15.23C3.84487 15.2489 3.81662 15.262 3.78654 15.268C3.75646 15.274 3.72538 15.2729 3.69581 15.2647C3.66623 15.2566 3.63899 15.2416 3.61627 15.2209C3.59355 15.2003 3.57599 15.1746 3.56501 15.146C3.19006 14.1396 2.99869 13.074 3.00001 12C3.00001 10.848 3.21701 9.746 3.61201 8.733C3.6231 8.70508 3.64046 8.68008 3.66275 8.65994C3.68504 8.6398 3.71167 8.62505 3.74056 8.61683C3.76946 8.60862 3.79986 8.60716 3.82942 8.61256C3.85897 8.61797 3.88689 8.63009 3.91101 8.648L6.64301 10.652C6.70801 10.699 6.73801 10.782 6.72101 10.86C6.57462 11.5396 6.56136 12.241 6.68001 12.926ZM7.14701 9.161C7.24301 9.231 7.37801 9.203 7.44201 9.103C7.9294 8.33562 8.60277 7.70381 9.39961 7.26623C10.1964 6.82865 11.0909 6.59948 12 6.6C13.257 6.59958 14.4744 7.04016 15.44 7.845C15.479 7.87802 15.5289 7.8953 15.5799 7.89345C15.631 7.8916 15.6795 7.87076 15.716 7.835L17.982 5.568C18.001 5.54912 18.0159 5.52657 18.0259 5.50173C18.0359 5.47688 18.0407 5.45026 18.04 5.4235C18.0394 5.39673 18.0333 5.37038 18.0221 5.34605C18.0109 5.32172 17.9949 5.29993 17.975 5.282C16.3323 3.8116 14.2047 2.99904 12 3C10.5197 2.99918 9.06204 3.36385 7.75648 4.06164C6.45092 4.75943 5.33783 5.76874 4.51601 7C4.48838 7.0423 4.47806 7.0936 4.48718 7.14329C4.4963 7.19298 4.52416 7.23727 4.56501 7.267L7.14701 9.161Z" fill="black"/>
</svg>
