<svg width="37" height="33" viewBox="0 0 37 33" fill="none" xmlns="http://www.w3.org/2000/svg">
<path d="M4.7697 22.3497C5.4205 22.3497 5.79248 22.0097 5.79248 21.4148V14.3225C5.79248 13.7276 5.4205 13.3875 4.7697 13.3875H0V22.3503L4.7697 22.3497ZM13.8968 17.8562C13.8968 19.7998 15.4112 21.4631 17.3907 21.9004V13.849C16.3943 14.0503 15.5037 14.5582 14.8678 15.2877C14.2318 16.0172 13.8891 16.9235 13.8968 17.8562ZM19.5294 21.901C21.5221 21.4637 22.9968 19.8004 23.0233 17.8568C23.0365 15.9139 21.536 14.2868 19.5294 13.8496V21.901ZM32.2303 13.3881C31.5795 13.3881 31.2075 13.7282 31.2075 14.3231V21.4154C31.2075 22.0103 31.5795 22.3503 32.2303 22.3503H37V13.3875L32.2303 13.3881ZM37 24.3053H32.19C30.2244 24.3053 29.0688 23.2484 29.0688 21.451V14.2862C29.0688 12.4888 30.2244 11.4325 32.1907 11.4325H37V10.1811C37 7.67951 35.6052 6.41663 32.8283 6.41663H19.5294V12.0153C22.6381 12.4768 24.9367 14.8932 24.9763 17.8689C25.016 20.8682 22.6513 23.2852 19.5294 23.7467V29.3333H32.8283C35.6052 29.3333 37 28.0698 37 25.5682V24.3053ZM0 24.3053V25.5676C0 28.0698 1.40798 29.3327 4.17175 29.3327H17.39V23.7461C14.2813 23.2973 11.9431 20.8803 11.9431 17.8689C11.9431 14.8811 14.2813 12.4278 17.39 11.9912V6.41663H4.17175C1.40732 6.41663 0 7.66743 0 10.1811V11.4325H4.80934C6.77562 11.4325 7.93121 12.4888 7.93121 14.2862V21.451C7.93121 23.2484 6.77496 24.3053 4.80934 24.3053H0Z" fill="#8BA189"/>
</svg>
